<svg width="1491" height="652" viewBox="0 0 1491 652" fill="none" xmlns="http://www.w3.org/2000/svg">
  <g opacity="0.37" filter="url(#filter0_d_3_1163)">
    <path
      d="M1061.91 261.336C1062.47 299.407 1045.85 328.308 1037.25 341.157C1012.05 341.091 986.845 341.02 961.639 340.954C936.12 341.359 910.607 341.77 885.089 342.175C877.571 326.424 866.771 298.18 867.849 262.179C868.128 252.796 868.659 240.056 873.588 224.207C890.15 170.939 938.686 147.699 942.204 146.128C947.271 143.872 952.775 141.907 952.775 141.907C956.217 140.675 959.22 139.744 961.579 139.054C963.182 139.536 965.458 140.231 968.182 141.129C968.182 141.129 976.072 143.719 982.55 146.308C1008.12 156.535 1026.57 175.324 1026.57 175.324C1042.28 191.332 1050.25 208.347 1054.27 219.236C1056.01 223.961 1061.59 240.018 1061.91 261.336Z"
      fill="url(#paint0_linear_3_1163)" />
  </g>
  <g opacity="0.37" filter="url(#filter1_d_3_1163)">
    <path
      d="M1044.69 81.9318V187.374C1044.54 187.116 1044.38 186.859 1044.22 186.607C1044.17 186.53 1044.12 186.454 1044.08 186.383C1043.92 186.136 1043.77 185.895 1043.62 185.654C1043.61 185.644 1043.6 185.633 1043.59 185.622C1043.41 185.331 1043.22 185.041 1043.04 184.751C1042.87 184.499 1042.71 184.247 1042.54 184.001C1042.41 183.804 1042.28 183.607 1042.16 183.41C1042.11 183.333 1042.05 183.257 1042 183.18C1041.93 183.07 1041.85 182.961 1041.78 182.846C1041.75 182.802 1041.72 182.758 1041.69 182.72C1041.66 182.676 1041.63 182.627 1041.6 182.583C1041.56 182.523 1041.52 182.468 1041.48 182.408C1041.4 182.293 1041.32 182.184 1041.25 182.069C1040.91 181.57 1040.56 181.078 1040.21 180.585C1040.03 180.322 1039.85 180.065 1039.66 179.808C1039.61 179.742 1039.56 179.671 1039.51 179.605C1039.38 179.413 1039.24 179.227 1039.1 179.036C1038.98 178.871 1038.87 178.707 1038.75 178.548C1038.74 178.537 1038.73 178.526 1038.72 178.516C1038.67 178.439 1038.62 178.368 1038.56 178.291C1038.55 178.275 1038.54 178.258 1038.53 178.247C1038.43 178.11 1038.33 177.974 1038.22 177.837C1038.22 177.837 1038.22 177.837 1038.22 177.831C1038.19 177.787 1038.16 177.744 1038.12 177.7C1038.08 177.64 1038.04 177.579 1037.99 177.525C1037.93 177.437 1037.87 177.355 1037.8 177.267C1037.68 177.103 1037.56 176.944 1037.43 176.786C1037.29 176.599 1037.15 176.413 1037.01 176.227C1036.64 175.751 1036.27 175.275 1035.9 174.804C1035.74 174.607 1035.58 174.415 1035.43 174.218C1035.29 174.048 1035.16 173.879 1035.02 173.709C1035.02 173.703 1035.01 173.692 1035 173.687C1034.86 173.512 1034.72 173.342 1034.58 173.172C1034.55 173.139 1034.52 173.101 1034.49 173.068C1034.3 172.844 1034.12 172.619 1033.93 172.395C1033.72 172.138 1033.5 171.88 1033.28 171.623C1033.2 171.524 1033.11 171.42 1033.02 171.322C1032.86 171.13 1032.7 170.933 1032.53 170.742C1032.42 170.61 1032.31 170.479 1032.19 170.347C1032.17 170.32 1032.14 170.293 1032.12 170.26C1032.08 170.21 1032.03 170.161 1031.99 170.117C1031.93 170.052 1031.87 169.986 1031.81 169.915C1031.61 169.674 1031.4 169.439 1031.18 169.203C1031.15 169.165 1031.12 169.132 1031.09 169.094C1031.06 169.072 1031.05 169.05 1031.03 169.028C1030.83 168.809 1030.64 168.59 1030.44 168.371C1030.28 168.196 1030.12 168.026 1029.96 167.851C1029.86 167.736 1029.76 167.621 1029.65 167.506C1029.22 167.03 1028.78 166.559 1028.33 166.094C1028.1 165.842 1027.86 165.595 1027.62 165.344C1027.4 165.108 1027.17 164.878 1026.95 164.648C1025.98 163.646 1024.98 162.661 1023.97 161.692V81.9591C1023.97 76.6597 1027.95 72.2854 1033.08 71.6723C1033.59 64.7797 1034.08 57.8926 1034.59 51C1035.11 57.909 1035.62 64.818 1036.14 71.727C1036.96 71.8803 1040.06 72.5537 1042.38 75.4498C1044.56 78.1597 1044.68 81.0941 1044.68 81.9646L1044.69 81.9318Z"
      fill="url(#paint1_linear_3_1163)" />
  </g>
  <g filter="url(#filter2_d_3_1163)">
    <path
      d="M1287.67 664.084C1262.31 321.99 1189.27 219.729 1118.62 200.069C989.297 164.084 882.047 408.719 599.588 424.295C482.928 430.727 444.47 392.131 339.792 419.805C200.437 456.65 108.556 567.374 53 654.345C464.555 657.591 876.111 660.838 1287.67 664.084H1287.67Z"
      fill="url(#paint2_linear_3_1163)" />
  </g>
  <g filter="url(#filter3_d_3_1163)">
    <path
      d="M826.365 521.278C827.208 577.963 802.455 620.993 789.652 640.127C752.124 640.029 714.596 639.925 677.068 639.826C639.075 640.434 601.082 641.036 563.089 641.644C551.9 618.196 535.814 576.139 537.417 522.537C537.833 508.566 538.626 489.596 545.964 465.995C570.628 386.678 642.889 352.073 648.13 349.741C655.67 346.385 663.871 343.45 663.871 343.45C668.998 341.622 673.468 340.226 676.981 339.208C679.366 339.919 682.758 340.965 686.813 342.295C686.813 342.295 698.565 346.155 708.211 350.009C746.292 365.234 773.747 393.215 773.747 393.215C797.137 417.052 809.01 442.388 814.995 458.599C817.594 465.628 825.9 489.541 826.37 521.283L826.365 521.278Z"
      fill="url(#paint3_linear_3_1163)" />
  </g>
  <g filter="url(#filter4_d_3_1163)">
    <path
      d="M1574.27 419.1C1575.81 523.025 1530.44 601.909 1506.97 636.986C1497.72 636.958 1488.47 636.936 1479.23 636.909C1419.67 636.75 1360.12 636.586 1300.56 636.427C1230.9 637.538 1161.25 638.65 1091.6 639.761C1071.08 596.774 1041.6 519.669 1044.53 421.394C1045.3 395.778 1046.74 360.998 1060.2 317.737C1105.41 172.325 1237.9 108.884 1247.5 104.603C1261.33 98.4443 1276.36 93.0736 1276.36 93.0736C1285.75 89.7177 1293.95 87.1665 1300.39 85.2942C1304.76 86.6026 1310.99 88.5133 1318.41 90.9495C1318.41 90.9495 1339.96 98.0227 1357.64 105.096C1427.45 133.011 1477.79 184.303 1477.79 184.303C1520.67 228.002 1542.43 274.454 1553.41 304.176C1558.17 317.069 1573.4 360.91 1574.26 419.1H1574.27Z"
      fill="url(#paint4_linear_3_1163)" />
  </g>
  <g filter="url(#filter5_d_3_1163)">
    <path
      d="M800.726 254.142V411.139C800.491 410.756 800.256 410.372 800.015 409.995C799.944 409.88 799.873 409.77 799.801 409.655C799.572 409.288 799.347 408.927 799.117 408.566C799.107 408.549 799.096 408.533 799.085 408.517C798.811 408.079 798.532 407.646 798.248 407.219C798.007 406.847 797.766 406.475 797.514 406.102C797.323 405.807 797.126 405.516 796.934 405.221C796.858 405.106 796.781 404.991 796.705 404.876C796.595 404.712 796.486 404.547 796.371 404.378C796.327 404.312 796.283 404.252 796.24 404.186C796.196 404.12 796.147 404.049 796.103 403.984C796.043 403.896 795.988 403.808 795.928 403.721C795.813 403.551 795.698 403.381 795.583 403.217C795.074 402.473 794.565 401.739 794.046 401.005C793.772 400.617 793.498 400.228 793.219 399.845C793.148 399.746 793.077 399.642 793.006 399.544C792.804 399.259 792.601 398.98 792.393 398.695C792.218 398.454 792.043 398.208 791.862 397.967C791.852 397.951 791.841 397.934 791.824 397.918C791.748 397.808 791.66 397.693 791.578 397.584C791.562 397.562 791.545 397.54 791.529 397.518C791.381 397.315 791.228 397.107 791.075 396.905C791.075 396.905 791.075 396.899 791.069 396.894C791.02 396.828 790.971 396.762 790.921 396.697C790.856 396.609 790.79 396.522 790.725 396.434C790.631 396.308 790.533 396.177 790.44 396.051C790.259 395.81 790.079 395.569 789.898 395.334C789.69 395.054 789.477 394.781 789.264 394.501C788.716 393.79 788.169 393.084 787.611 392.383C787.381 392.093 787.152 391.802 786.916 391.512C786.714 391.26 786.512 391.009 786.309 390.757C786.304 390.746 786.293 390.729 786.282 390.719C786.074 390.461 785.866 390.204 785.658 389.947C785.62 389.892 785.576 389.843 785.532 389.788C785.259 389.454 784.985 389.12 784.706 388.786C784.389 388.403 784.066 388.014 783.738 387.631C783.612 387.483 783.486 387.33 783.355 387.182C783.114 386.892 782.868 386.607 782.621 386.322C782.452 386.125 782.288 385.934 782.118 385.737C782.08 385.693 782.047 385.649 782.009 385.611C781.948 385.539 781.883 385.468 781.823 385.397C781.735 385.299 781.648 385.2 781.56 385.096C781.248 384.74 780.942 384.39 780.624 384.034C780.575 383.979 780.526 383.924 780.482 383.87C780.449 383.837 780.422 383.804 780.395 383.771C780.105 383.443 779.815 383.12 779.519 382.791C779.289 382.534 779.054 382.277 778.819 382.019C778.666 381.85 778.507 381.674 778.348 381.505C777.703 380.798 777.046 380.098 776.389 379.402C776.039 379.03 775.684 378.658 775.328 378.291C774.994 377.946 774.661 377.601 774.327 377.256C772.871 375.767 771.394 374.3 769.895 372.855V254.131C769.895 246.237 775.821 239.728 783.464 238.813C784.208 228.554 784.958 218.294 785.702 208.035C786.473 218.322 787.245 228.609 788.016 238.896C789.225 239.12 793.843 240.122 797.312 244.436C800.557 248.471 800.732 252.834 800.737 254.131L800.726 254.142Z"
      fill="url(#paint5_linear_3_1163)" />
  </g>
  <defs>
    <filter id="filter0_d_3_1163" x="823.774" y="88.0543" width="342.147" height="351.12"
      filterUnits="userSpaceOnUse" color-interpolation-filters="sRGB">
      <feFlood flood-opacity="0" result="BackgroundImageFix" />
      <feColorMatrix in="SourceAlpha" type="matrix"
        values="0 0 0 0 0 0 0 0 0 0 0 0 0 0 0 0 0 0 127 0" result="hardAlpha" />
      <feOffset dx="30" dy="23" />
      <feGaussianBlur stdDeviation="37" />
      <feColorMatrix type="matrix" values="0 0 0 0 0 0 0 0 0 0 0 0 0 0 0 0 0 0 0.75 0" />
      <feBlend mode="normal" in2="BackgroundImageFix" result="effect1_dropShadow_3_1163" />
      <feBlend mode="normal" in="SourceGraphic" in2="effect1_dropShadow_3_1163" result="shape" />
    </filter>
    <filter id="filter1_d_3_1163" x="979.974" y="0" width="168.72" height="284.374"
      filterUnits="userSpaceOnUse" color-interpolation-filters="sRGB">
      <feFlood flood-opacity="0" result="BackgroundImageFix" />
      <feColorMatrix in="SourceAlpha" type="matrix"
        values="0 0 0 0 0 0 0 0 0 0 0 0 0 0 0 0 0 0 127 0" result="hardAlpha" />
      <feOffset dx="30" dy="23" />
      <feGaussianBlur stdDeviation="37" />
      <feColorMatrix type="matrix" values="0 0 0 0 0 0 0 0 0 0 0 0 0 0 0 0 0 0 0.75 0" />
      <feBlend mode="normal" in2="BackgroundImageFix" result="effect1_dropShadow_3_1163" />
      <feBlend mode="normal" in="SourceGraphic" in2="effect1_dropShadow_3_1163" result="shape" />
    </filter>
    <filter id="filter2_d_3_1163" x="0" y="143.461" width="1354.67" height="587.623"
      filterUnits="userSpaceOnUse" color-interpolation-filters="sRGB">
      <feFlood flood-opacity="0" result="BackgroundImageFix" />
      <feColorMatrix in="SourceAlpha" type="matrix"
        values="0 0 0 0 0 0 0 0 0 0 0 0 0 0 0 0 0 0 127 0" result="hardAlpha" />
      <feOffset dx="7" dy="7" />
      <feGaussianBlur stdDeviation="30" />
      <feColorMatrix type="matrix" values="0 0 0 0 0 0 0 0 0 0 0 0 0 0 0 0 0 0 0.5 0" />
      <feBlend mode="normal" in2="BackgroundImageFix" result="effect1_dropShadow_3_1163" />
      <feBlend mode="normal" in="SourceGraphic" in2="effect1_dropShadow_3_1163" result="shape" />
    </filter>
    <filter id="filter3_d_3_1163" x="493.306" y="288.208" width="437.08" height="450.436"
      filterUnits="userSpaceOnUse" color-interpolation-filters="sRGB">
      <feFlood flood-opacity="0" result="BackgroundImageFix" />
      <feColorMatrix in="SourceAlpha" type="matrix"
        values="0 0 0 0 0 0 0 0 0 0 0 0 0 0 0 0 0 0 127 0" result="hardAlpha" />
      <feOffset dx="30" dy="23" />
      <feGaussianBlur stdDeviation="37" />
      <feColorMatrix type="matrix" values="0 0 0 0 0 0 0 0 0 0 0 0 0 0 0 0 0 0 0.75 0" />
      <feBlend mode="normal" in2="BackgroundImageFix" result="effect1_dropShadow_3_1163" />
      <feBlend mode="normal" in="SourceGraphic" in2="effect1_dropShadow_3_1163" result="shape" />
    </filter>
    <filter id="filter4_d_3_1163" x="1000.33" y="34.2942" width="677.979" height="702.467"
      filterUnits="userSpaceOnUse" color-interpolation-filters="sRGB">
      <feFlood flood-opacity="0" result="BackgroundImageFix" />
      <feColorMatrix in="SourceAlpha" type="matrix"
        values="0 0 0 0 0 0 0 0 0 0 0 0 0 0 0 0 0 0 127 0" result="hardAlpha" />
      <feOffset dx="30" dy="23" />
      <feGaussianBlur stdDeviation="37" />
      <feColorMatrix type="matrix" values="0 0 0 0 0 0 0 0 0 0 0 0 0 0 0 0 0 0 0.75 0" />
      <feBlend mode="normal" in2="BackgroundImageFix" result="effect1_dropShadow_3_1163" />
      <feBlend mode="normal" in="SourceGraphic" in2="effect1_dropShadow_3_1163" result="shape" />
    </filter>
    <filter id="filter5_d_3_1163" x="725.895" y="157.035" width="178.842" height="351.104"
      filterUnits="userSpaceOnUse" color-interpolation-filters="sRGB">
      <feFlood flood-opacity="0" result="BackgroundImageFix" />
      <feColorMatrix in="SourceAlpha" type="matrix"
        values="0 0 0 0 0 0 0 0 0 0 0 0 0 0 0 0 0 0 127 0" result="hardAlpha" />
      <feOffset dx="30" dy="23" />
      <feGaussianBlur stdDeviation="37" />
      <feColorMatrix type="matrix" values="0 0 0 0 0 0 0 0 0 0 0 0 0 0 0 0 0 0 0.75 0" />
      <feBlend mode="normal" in2="BackgroundImageFix" result="effect1_dropShadow_3_1163" />
      <feBlend mode="normal" in="SourceGraphic" in2="effect1_dropShadow_3_1163" result="shape" />
    </filter>
    <linearGradient id="paint0_linear_3_1163" x1="867.778" y1="240.615" x2="1061.92" y2="240.615"
      gradientUnits="userSpaceOnUse">
      <stop stop-color="#738F7F" />
      <stop offset="1" stop-color="#2B3D35" />
    </linearGradient>
    <linearGradient id="paint1_linear_3_1163" x1="1023.98" y1="119.17" x2="1044.69" y2="119.17"
      gradientUnits="userSpaceOnUse">
      <stop stop-color="#556D60" />
      <stop offset="1" stop-color="#30423A" />
    </linearGradient>
    <linearGradient id="paint2_linear_3_1163" x1="53.0055" y1="430.273" x2="1287.67" y2="430.273"
      gradientUnits="userSpaceOnUse">
      <stop stop-color="#98A395" />
      <stop offset="1" stop-color="#5A6E65" />
    </linearGradient>
    <linearGradient id="paint3_linear_3_1163" x1="537.308" y1="490.417" x2="826.387" y2="490.417"
      gradientUnits="userSpaceOnUse">
      <stop stop-color="#88A393" />
      <stop offset="1" stop-color="#446154" />
    </linearGradient>
    <linearGradient id="paint4_linear_3_1163" x1="1044.33" y1="342.729" x2="1574.31" y2="342.729"
      gradientUnits="userSpaceOnUse">
      <stop stop-color="#738F7F" />
      <stop offset="1" stop-color="#2B3D35" />
    </linearGradient>
    <linearGradient id="paint5_linear_3_1163" x1="769.884" y1="309.595" x2="800.726" y2="309.595"
      gradientUnits="userSpaceOnUse">
      <stop stop-color="#638071" />
      <stop offset="1" stop-color="#496559" />
    </linearGradient>
  </defs>
</svg>