<svg width="38" height="59" viewBox="0 0 38 59" fill="none" xmlns="http://www.w3.org/2000/svg">
  <path
    d="M37.095 40.189c-.107 2.242-.74 4.329-.74 4.329-.145.48-.288.877-.398 1.164-1.782.028-6.44 1.373-8.463 2.302 0 0-1.56.716-2.802 1.492l-.352.223-.107.069-.17.112a27.9 27.9 0 0 0-6.134 5.518 28 28 0 0 0-5.209-5.04l.007-.001-.021-.01-.202-.148a27.7 27.7 0 0 0-4.748-2.783 27.6 27.6 0 0 0-7.269-2.191A24.5 24.5 0 0 1 0 40.35c0-2.527.384-4.963 1.097-7.255C4.263 22.92 13.54 18.48 14.213 18.18c.969-.43 2.021-.807 2.021-.807a29 29 0 0 1 1.683-.544 51 51 0 0 1 4.009 1.386c4.889 1.953 8.414 5.543 8.414 5.543 3.003 3.058 4.526 6.31 5.295 8.39.252.646 1.64 4.299 1.46 8.042"
    fill="url(#a)" />
  <path
    d="M33.804 5.914v20.144a16 16 0 0 0-.21-.336 16 16 0 0 0-.276-.423l-.03-.045-.042-.063-.017-.025-.018-.026-.022-.033-.044-.065q-.098-.143-.198-.284l-.106-.149-.027-.039-.147-.202-.005-.006-.032-.043-.006-.008-.058-.079v-.001l-.045-.06-.037-.048-.07-.092-.081-.107a25 25 0 0 0-.38-.48l-.003-.005-.08-.099-.017-.02a16 16 0 0 0-.28-.335l-.094-.11-.065-.075-.014-.017-.024-.028-.034-.038-.12-.136-.018-.021-.011-.013a17 17 0 0 0-.263-.29 26 26 0 0 0-1.086-1.11V5.913a1.98 1.98 0 0 1 1.742-1.965L31.874 0l.296 3.96a2.02 2.02 0 0 1 1.194.71 2.02 2.02 0 0 1 .44 1.244"
    fill="url(#b)" />
  <path
    d="M17.833 58.866a17 17 0 0 0-.854-.619 18.43 18.43 0 0 0-12.07-3.14q-.54.048-1.069.126a16 16 0 0 1-2.232-3.81 19 19 0 0 1 3.116.035 18.5 18.5 0 0 1 5.161 1.256q.513.207 1.01.444a18.6 18.6 0 0 1 6.938 5.709"
    fill="url(#c)" />
  <path
    d="M.619 47.677q.299.958.688 1.872h.018a24 24 0 0 1 1.355.04 22.98 22.98 0 0 1 15.323 7.088 23.2 23.2 0 0 0-9.91-7.445 22.9 22.9 0 0 0-7.474-1.555"
    fill="url(#d)" />
  <path
    d="M18.161 58.86a19 19 0 0 1 .854-.62 18.43 18.43 0 0 1 12.07-3.14q.54.05 1.07.127a16 16 0 0 0 2.23-3.81 19 19 0 0 0-2.004-.037 18.4 18.4 0 0 0-3.64.489A18.4 18.4 0 0 0 25.1 53.15a18.6 18.6 0 0 0-6.938 5.71z"
    fill="url(#e)" />
  <path
    d="M35.375 47.67q-.3.959-.688 1.873h-.018a24 24 0 0 0-1.355.04c-2.077.12-4.08.514-5.973 1.148a23.06 23.06 0 0 0-9.35 5.94 23.2 23.2 0 0 1 7.766-6.479q1.043-.536 2.144-.966a22.9 22.9 0 0 1 7.474-1.556"
    fill="url(#f)" />
  <defs>
    <linearGradient id="a" x1="0" y1="36.113" x2="37.111" y2="36.113" gradientUnits="userSpaceOnUse">
      <stop stop-color="#7a9586" />
      <stop offset="1" stop-color="#5a685f" />
    </linearGradient>
    <linearGradient id="b" x1="29.845" y1="13.029" x2="33.804" y2="13.029"
      gradientUnits="userSpaceOnUse">
      <stop stop-color="#6e8477" />
      <stop offset="1" stop-color="#5b6960" />
    </linearGradient>
    <linearGradient id="c" x1="1.609" y1="55.12" x2="17.833" y2="55.12"
      gradientUnits="userSpaceOnUse">
      <stop stop-color="#7a9586" />
      <stop offset="1" stop-color="#5b6960" />
    </linearGradient>
    <linearGradient id="d" x1=".619" y1="52.177" x2="18.003" y2="52.177"
      gradientUnits="userSpaceOnUse">
      <stop stop-color="#7a9485" />
      <stop offset="1" stop-color="#5a685f" />
    </linearGradient>
    <linearGradient id="e" x1="18.161" y1="55.114" x2="34.386" y2="55.114"
      gradientUnits="userSpaceOnUse">
      <stop stop-color="#7a9586" />
      <stop offset="1" stop-color="#5a695f" />
    </linearGradient>
    <linearGradient id="f" x1="17.991" y1="52.171" x2="35.375" y2="52.171"
      gradientUnits="userSpaceOnUse">
      <stop stop-color="#7a9586" />
      <stop offset="1" stop-color="#5b6960" />
    </linearGradient>
  </defs>
</svg>