<svg width="364" height="606" viewBox="0 0 364 606" fill="none" xmlns="http://www.w3.org/2000/svg">
  <path
    d="M411.97 447.07C413.171 528.038 377.894 589.503 359.647 616.834C306.161 616.693 252.676 616.544 199.191 616.404C145.042 617.272 90.8941 618.132 36.7458 619C20.7993 585.507 -2.12634 525.434 0.158431 448.868C0.751067 428.912 1.88166 401.815 12.3386 368.103C47.4912 254.807 150.477 205.377 157.948 202.046C168.693 197.252 180.382 193.06 180.382 193.06C187.689 190.449 194.059 188.455 199.066 187C202.465 188.017 207.3 189.51 213.078 191.41C213.078 191.41 229.828 196.924 243.576 202.429C297.849 224.176 336.978 264.144 336.978 264.144C370.314 298.193 387.235 334.383 395.766 357.538C399.47 367.579 411.307 401.737 411.978 447.077L411.97 447.07Z"
    fill="#B5C4B5"/>
  <path
    d="M374.985 65.8341V290C374.649 289.453 374.313 288.906 373.97 288.366C373.868 288.202 373.767 288.046 373.665 287.882C373.337 287.358 373.017 286.842 372.69 286.326C372.674 286.303 372.658 286.279 372.643 286.256C372.253 285.63 371.854 285.013 371.449 284.403C371.105 283.872 370.762 283.34 370.403 282.808C370.129 282.386 369.848 281.972 369.575 281.55C369.466 281.386 369.357 281.222 369.247 281.057C369.091 280.823 368.935 280.588 368.771 280.346C368.709 280.252 368.646 280.166 368.584 280.073C368.521 279.979 368.451 279.877 368.389 279.783C368.303 279.658 368.225 279.533 368.139 279.408C367.975 279.166 367.811 278.923 367.647 278.689C366.921 277.626 366.195 276.578 365.454 275.531C365.063 274.976 364.673 274.421 364.275 273.874C364.174 273.733 364.072 273.585 363.971 273.444C363.682 273.037 363.393 272.639 363.096 272.232C362.847 271.888 362.597 271.536 362.339 271.193C362.324 271.169 362.308 271.146 362.285 271.122C362.176 270.966 362.051 270.802 361.933 270.645C361.91 270.614 361.887 270.583 361.863 270.552C361.653 270.262 361.434 269.965 361.215 269.676C361.215 269.676 361.215 269.668 361.208 269.66C361.137 269.567 361.067 269.473 360.997 269.379C360.903 269.254 360.81 269.129 360.716 269.004C360.583 268.824 360.443 268.636 360.31 268.457C360.052 268.113 359.795 267.769 359.537 267.433C359.241 267.034 358.936 266.643 358.632 266.244C357.851 265.228 357.071 264.22 356.274 263.219C355.947 262.805 355.619 262.391 355.283 261.976C354.994 261.617 354.706 261.257 354.417 260.898C354.409 260.882 354.393 260.859 354.378 260.843C354.081 260.476 353.785 260.108 353.488 259.741C353.433 259.663 353.371 259.592 353.308 259.514C352.918 259.037 352.528 258.56 352.13 258.084C351.677 257.536 351.217 256.981 350.748 256.434C350.569 256.223 350.389 256.004 350.202 255.793C349.858 255.379 349.507 254.972 349.156 254.566C348.914 254.285 348.68 254.011 348.438 253.729C348.383 253.667 348.336 253.604 348.281 253.55C348.196 253.448 348.102 253.346 348.016 253.245C347.891 253.104 347.766 252.963 347.642 252.815C347.197 252.307 346.76 251.807 346.307 251.298C346.237 251.22 346.166 251.142 346.104 251.064C346.057 251.017 346.018 250.97 345.979 250.923C345.565 250.454 345.152 249.993 344.73 249.524C344.402 249.157 344.067 248.789 343.731 248.422C343.512 248.18 343.286 247.929 343.06 247.687C342.139 246.679 341.202 245.678 340.265 244.685C339.766 244.154 339.258 243.622 338.751 243.098C338.275 242.606 337.799 242.114 337.323 241.621C335.246 239.495 333.139 237.4 331 235.336V65.8185C331 54.5465 339.453 45.2521 350.358 43.9467C351.419 29.2978 352.489 14.6489 353.55 0C354.651 14.688 355.751 29.376 356.852 44.064C358.577 44.3845 365.165 45.815 370.114 51.9747C374.743 57.7358 374.992 63.9659 375 65.8185L374.985 65.8341Z"
    fill="#B5C4B5"/>
</svg>